<svg xmlns="http://www.w3.org/2000/svg" width="736" height="552" viewBox="0 0 736 552">
<g>
<path d="M 458.34 350.34 C457.69,366.78 457.66,367.00 455.43,367.00 C453.77,367.00 451.34,364.66 446.35,358.25 C442.60,353.44 435.02,343.81 429.51,336.85 C424.01,329.89 417.63,321.79 415.34,318.85 C413.05,315.91 408.16,309.68 404.48,305.02 C400.79,300.35 396.39,294.50 394.70,292.02 C393.00,289.53 391.25,287.35 390.81,287.17 C390.36,286.98 390.00,286.39 390.00,285.86 C390.00,285.32 390.56,285.22 391.25,285.63 C392.11,286.15 392.07,285.86 391.14,284.70 C390.39,283.78 389.43,283.23 389.02,283.49 C388.61,283.74 387.46,283.06 386.48,281.98 C385.36,280.74 385.15,280.00 385.90,280.00 C386.58,280.00 386.80,279.48 386.39,278.83 C385.89,278.01 386.25,277.88 387.59,278.39 C389.12,278.97 389.25,278.87 388.25,277.86 C386.55,276.15 386.68,274.46 388.65,272.49 C390.33,270.81 392.15,264.30 392.07,260.25 C392.04,259.01 392.29,258.00 392.61,258.00 C393.51,258.00 399.27,262.16 401.53,264.45 C405.93,268.88 414.20,276.00 414.96,276.00 C415.41,276.00 416.56,274.80 417.52,273.34 C418.95,271.14 419.17,269.19 418.74,262.30 C418.33,255.76 418.54,253.61 419.68,252.46 C420.39,251.76 420.79,251.32 421.28,251.18 C422.03,250.97 422.97,251.45 425.45,252.70 L 425.79 252.88 C440.77,260.46 452.80,251.75 454.64,231.98 C455.19,226.08 455.57,225.00 457.14,225.00 C458.93,225.00 459.00,227.07 459.00,279.34 C459.00,309.23 458.70,341.18 458.34,350.34 ZM 483.50 172.85 C480.75,174.39 476.81,176.62 474.75,177.81 C472.69,179.00 471.00,179.50 471.00,178.92 C471.00,178.35 470.58,178.14 470.07,178.46 C469.50,178.81 469.25,174.77 469.44,168.27 C469.60,162.35 469.33,156.71 468.83,155.74 C467.18,152.56 470.68,152.58 474.73,155.77 C479.67,159.66 487.61,163.62 493.39,165.08 C495.95,165.72 498.24,166.57 498.48,166.97 C498.73,167.37 496.58,168.23 493.72,168.88 C490.85,169.52 486.25,171.31 483.50,172.85 ZM 329.56 213.25 L 333.10 216.50 L 332.80 224.96 C332.51,233.14 332.44,233.34 330.89,230.96 C328.27,226.94 323.00,214.33 323.00,212.08 C323.00,209.06 325.49,209.51 329.56,213.25 ZM 387.67 282.33 C388.03,282.70 388.57,282.77 388.85,282.48 C389.13,282.20 388.83,281.43 388.18,280.78 C387.47,280.07 387.00,280.01 387.00,280.63 C387.00,281.20 387.30,281.97 387.67,282.33 Z" fill="rgb(214,165,114)"/>
<path d="M 408.12 309.65 C405.80,306.71 403.45,303.76 401.72,301.63 C392.45,290.20 363.48,253.62 352.72,239.75 C344.02,228.54 342.42,225.99 342.08,222.78 C342.03,222.39 340.62,220.50 338.94,218.59 C334.16,213.14 333.00,214.51 333.00,225.58 C333.00,233.19 332.74,234.84 331.60,234.40 C330.83,234.10 329.98,233.02 329.71,231.99 C329.44,230.96 326.59,225.25 323.39,219.31 C317.41,208.23 313.01,198.47 313.00,196.25 C313.00,194.07 314.70,194.86 321.10,200.00 C324.52,202.75 327.62,205.00 327.97,205.00 C328.81,205.00 330.77,197.02 331.61,190.21 C332.07,186.53 332.83,184.62 334.13,183.93 C335.38,183.26 336.00,183.26 336.00,183.93 C336.00,184.48 336.95,185.44 338.11,186.06 C341.05,187.63 342.28,186.02 341.46,181.66 C340.88,178.53 340.33,177.96 337.35,177.41 C332.38,176.47 333.74,174.72 340.78,173.00 C344.16,172.18 347.48,170.94 348.16,170.25 C350.15,168.25 352.65,168.79 355.16,171.77 C356.45,173.30 358.53,175.26 359.78,176.14 C361.03,177.01 366.16,182.85 371.17,189.11 C376.18,195.38 382.13,202.57 384.39,205.09 C386.65,207.62 394.78,217.74 402.45,227.59 C417.24,246.58 420.41,249.99 426.00,252.92 C426.95,253.42 427.88,253.84 428.80,254.20 C434.14,256.18 439.01,256.01 443.07,253.96 C449.27,250.74 453.61,243.07 454.64,231.98 C453.60,243.15 449.31,250.79 443.07,253.96 C438.98,256.07 434.09,256.25 428.80,254.20 C427.81,253.83 426.81,253.39 425.79,252.88 L 425.45 252.70 C422.97,251.45 422.03,250.97 421.28,251.18 C420.79,251.32 420.39,251.76 419.68,252.46 C418.54,253.61 418.33,255.76 418.74,262.30 C419.17,269.19 418.95,271.14 417.52,273.34 C416.56,274.80 415.41,276.00 414.96,276.00 C414.20,276.00 405.93,268.88 401.53,264.45 C399.27,262.16 393.51,258.00 392.61,258.00 C392.29,258.00 392.04,259.01 392.07,260.25 C392.15,264.30 390.33,270.81 388.65,272.49 C386.68,274.46 386.55,276.15 388.25,277.86 C389.25,278.87 389.12,278.97 387.59,278.39 C386.25,277.88 385.89,278.01 386.39,278.83 C386.80,279.48 386.58,280.00 385.90,280.00 C385.15,280.00 385.36,280.74 386.48,281.98 C387.46,283.06 388.61,283.74 389.02,283.49 C389.43,283.23 390.39,283.78 391.14,284.70 C392.07,285.86 392.11,286.15 391.25,285.63 C390.56,285.22 390.00,285.32 390.00,285.86 C390.00,286.39 390.36,286.98 390.81,287.17 C391.25,287.35 393.00,289.53 394.70,292.02 C396.39,294.50 400.79,300.35 404.48,305.02 C405.61,306.46 406.87,308.05 408.12,309.65 ZM 461.72 195.25 C457.82,203.24 456.72,204.25 455.17,201.25 C454.12,199.22 451.64,191.74 451.77,191.00 C451.82,190.73 451.20,189.77 450.40,188.89 C449.59,188.00 448.77,186.38 448.56,185.30 C448.35,184.21 447.24,181.57 446.09,179.43 C443.58,174.74 443.52,173.66 445.62,170.46 C446.92,168.47 447.02,167.46 446.11,165.24 C444.73,161.86 445.52,153.20 447.40,151.07 C448.17,150.21 450.26,145.79 452.04,141.25 C453.82,136.71 455.82,133.00 456.49,133.00 C458.09,133.00 459.97,135.45 463.00,141.47 C467.07,149.57 475.73,157.41 485.07,161.98 C481.29,160.20 477.53,157.97 474.73,155.77 C470.68,152.58 467.18,152.56 468.83,155.74 C469.33,156.71 469.60,162.35 469.44,168.27 C469.25,174.77 469.50,178.81 470.07,178.46 C470.58,178.14 471.00,178.35 471.00,178.92 C471.00,179.50 472.69,179.00 474.75,177.81 C476.21,176.97 478.61,175.61 480.86,174.34 C472.65,179.19 466.04,186.39 461.72,195.25 ZM 329.56 213.25 C325.49,209.51 323.00,209.06 323.00,212.08 C323.00,214.33 328.27,226.94 330.89,230.96 C332.44,233.34 332.51,233.14 332.80,224.96 L 333.10 216.50 ZM 387.67 282.33 C387.30,281.97 387.00,281.20 387.00,280.63 C387.00,280.01 387.47,280.07 388.18,280.78 C388.83,281.43 389.13,282.20 388.85,282.48 C388.57,282.77 388.03,282.70 387.67,282.33 ZM 412.83 315.65 C413.82,316.91 414.69,318.01 415.34,318.85 C417.63,321.79 424.01,329.89 429.51,336.85 C435.02,343.81 442.60,353.44 446.35,358.25 C442.60,353.44 435.02,343.82 429.51,336.87 C424.01,329.93 416.80,320.76 413.50,316.50 C413.29,316.23 413.06,315.94 412.83,315.65 ZM 483.50 172.85 C485.59,171.68 488.74,170.37 491.39,169.52 C489.05,170.34 486.21,171.53 483.80,172.74 C483.40,172.94 483.00,173.15 482.60,173.36 C482.91,173.18 483.21,173.01 483.50,172.85 ZM 495.61 168.39 C496.97,167.99 497.98,167.58 498.35,167.27 C498.27,167.68 497.35,168.05 495.61,168.39 Z" fill="rgb(231,180,125)"/>
<path d="M 271.86 408.97 C264.30,411.07 249.00,412.81 249.00,411.58 C249.00,411.19 252.21,407.55 256.14,403.49 C267.23,392.03 272.61,383.58 277.48,370.00 C284.71,349.83 285.17,343.04 284.81,262.50 L 284.50 193.50 L 282.15 188.77 C279.61,183.66 275.02,178.62 270.96,176.50 C269.56,175.76 265.62,174.59 262.21,173.88 C256.11,172.62 256.00,172.54 256.00,169.30 L 256.00 166.00 L 305.25 166.03 L 354.50 166.06 L 372.16 188.78 C381.40,200.65 388.82,210.20 394.83,217.90 C389.99,211.81 385.89,206.77 384.39,205.09 C382.13,202.57 376.18,195.38 371.17,189.11 C366.16,182.85 361.03,177.01 359.78,176.14 C358.53,175.26 356.45,173.30 355.16,171.77 C352.65,168.79 350.15,168.25 348.16,170.25 C347.48,170.94 344.16,172.18 340.78,173.00 C333.74,174.72 332.38,176.47 337.35,177.41 C340.33,177.96 340.88,178.53 341.46,181.66 C342.28,186.02 341.05,187.63 338.11,186.06 C336.95,185.44 336.00,184.48 336.00,183.93 C336.00,183.26 335.38,183.26 334.13,183.93 C332.83,184.62 332.07,186.53 331.61,190.21 C330.77,197.02 328.81,205.00 327.97,205.00 C327.62,205.00 324.52,202.75 321.10,200.00 C314.70,194.86 313.00,194.07 313.00,196.25 C313.01,198.47 317.41,208.23 323.39,219.31 C326.59,225.25 329.44,230.96 329.71,231.99 C329.98,233.02 330.83,234.10 331.60,234.40 C332.74,234.84 333.00,233.19 333.00,225.58 C333.00,214.51 334.16,213.14 338.94,218.59 C340.62,220.50 342.03,222.39 342.08,222.78 C342.42,225.99 344.02,228.54 352.72,239.75 C359.54,248.54 373.68,266.46 385.48,281.32 C379.15,273.37 372.47,264.93 366.62,257.50 C360.56,249.80 353.55,241.24 351.05,238.47 C348.55,235.71 343.82,229.97 340.55,225.72 C337.27,221.48 334.23,218.00 333.80,218.00 C333.36,218.00 332.99,240.16 332.98,267.25 C332.97,303.76 332.60,319.23 331.56,327.04 C325.54,372.20 305.56,399.63 271.86,408.97 ZM 461.72 195.25 C463.46,191.68 465.57,188.38 468.01,185.40 C463.40,191.19 459.47,198.79 458.47,204.25 C458.09,206.31 457.45,208.00 457.06,208.00 C456.67,208.00 455.83,205.78 455.21,203.07 C453.88,197.34 446.97,185.33 442.55,181.07 C438.12,176.80 428.31,171.15 422.25,169.39 C419.36,168.55 417.00,167.51 417.00,167.09 C417.00,166.66 418.91,165.74 421.25,165.04 C437.14,160.29 450.26,147.19 454.65,131.70 C455.55,128.50 456.62,126.25 457.02,126.70 C457.42,127.14 458.75,130.54 459.96,134.25 C461.90,140.18 465.17,145.69 469.39,150.40 C466.74,147.57 464.54,144.54 463.00,141.47 C459.97,135.45 458.09,133.00 456.49,133.00 C455.82,133.00 453.82,136.71 452.04,141.25 C450.26,145.79 448.17,150.21 447.40,151.07 C445.52,153.20 444.73,161.86 446.11,165.24 C447.02,167.46 446.92,168.47 445.62,170.46 C443.52,173.66 443.58,174.74 446.09,179.43 C447.24,181.57 448.35,184.21 448.56,185.30 C448.77,186.38 449.59,188.00 450.40,188.89 C451.20,189.77 451.82,190.73 451.77,191.00 C451.64,191.74 454.12,199.22 455.17,201.25 C456.72,204.25 457.82,203.24 461.72,195.25 ZM 472.94 180.19 C475.37,177.97 478.02,176.01 480.86,174.34 C481.46,174.00 482.04,173.67 482.60,173.36 C483.00,173.15 483.40,172.94 483.80,172.74 C484.16,172.55 484.54,172.37 484.92,172.19 C480.67,174.36 476.32,177.23 472.94,180.19 ZM 405.33 231.28 C410.93,238.35 414.59,242.82 417.21,245.78 C414.39,242.69 410.75,238.20 405.33,231.28 ZM 412.83 315.65 L 412.83 315.65 C413.06,315.94 413.29,316.23 413.50,316.50 C416.80,320.76 424.01,329.93 429.51,336.87 C424.01,329.93 416.80,320.77 413.50,316.51 C413.16,316.07 412.81,315.61 412.43,315.13 Z" fill="rgb(242,197,141)"/>
<path d="M 0.00 276.00 L 0.00 0.00 L 368.00 0.00 L 736.00 0.00 L 736.00 276.00 L 736.00 552.00 L 368.00 552.00 L 0.00 552.00 L 0.00 276.00 ZM 271.86 408.97 C305.56,399.63 325.54,372.20 331.56,327.04 C332.60,319.23 332.97,303.76 332.98,267.25 C332.99,240.16 333.36,218.00 333.80,218.00 C334.23,218.00 337.27,221.48 340.55,225.72 C343.82,229.97 348.55,235.71 351.05,238.47 C353.55,241.24 360.56,249.80 366.62,257.50 C378.29,272.32 393.26,291.13 402.14,302.13 C405.09,305.78 410.20,312.25 413.50,316.51 C416.80,320.77 424.01,329.93 429.51,336.87 C435.02,343.82 442.60,353.44 446.35,358.25 C451.34,364.66 453.77,367.00 455.43,367.00 C457.66,367.00 457.69,366.78 458.34,350.34 C458.70,341.18 459.00,309.23 459.00,279.34 C459.00,227.07 458.93,225.00 457.14,225.00 C455.57,225.00 455.19,226.08 454.64,231.98 C452.81,251.63 440.59,260.57 426.00,252.92 C419.20,249.36 420.11,250.45 372.16,188.78 L 354.50 166.06 L 305.25 166.03 L 256.00 166.00 L 256.00 169.30 C256.00,172.54 256.11,172.62 262.21,173.88 C265.62,174.59 269.56,175.76 270.96,176.50 C275.02,178.62 279.61,183.66 282.15,188.77 L 284.50 193.50 L 284.81 262.50 C285.17,343.04 284.71,349.83 277.48,370.00 C272.61,383.58 267.23,392.03 256.14,403.49 C252.21,407.55 249.00,411.19 249.00,411.58 C249.00,412.81 264.30,411.07 271.86,408.97 ZM 458.47 204.25 C459.69,197.60 465.26,187.76 471.11,181.89 C477.19,175.81 488.15,169.66 494.94,168.51 C499.95,167.66 499.47,166.61 493.39,165.08 C477.95,161.19 464.80,149.07 459.96,134.25 C458.75,130.54 457.42,127.14 457.02,126.70 C456.62,126.25 455.55,128.50 454.65,131.70 C450.26,147.19 437.14,160.29 421.25,165.04 C418.91,165.74 417.00,166.66 417.00,167.09 C417.00,167.51 419.36,168.55 422.25,169.39 C428.31,171.15 438.12,176.80 442.55,181.07 C446.97,185.33 453.88,197.34 455.21,203.07 C455.83,205.78 456.67,208.00 457.06,208.00 C457.45,208.00 458.09,206.31 458.47,204.25 Z" fill="rgb(254,247,239)"/>
</g>
</svg>